<?xml version="1.0" encoding="UTF-8"?>
<svg width="80px" height="69px" viewBox="0 0 80 69" version="1.1" xmlns="http://www.w3.org/2000/svg" xmlns:xlink="http://www.w3.org/1999/xlink">
    <title>8BD34192-349C-4EA4-9934-31D5F4569B5A</title>
    <g id="Page-1" stroke="none" stroke-width="1" fill="none" fill-rule="evenodd">
        <g id="Desktop-Summary" transform="translate(-1156.000000, -215.000000)">
            <g id="Group-2" transform="translate(1156.470142, 215.019500)">
                <path d="M13.529858,46.2299849 C13.529858,46.2299849 10.612459,43.9241813 10.4776731,41.1647376 C10.3427057,38.405294 10.4377634,37.9586937 8.88037807,35.9805 C8.88037807,35.9805 7.99420134,38.1762418 8.62423036,40.305706 C8.62423036,40.305706 7.07210588,38.4379176 4.52985803,37.8302596 C4.52985803,37.8302596 5.22610088,40.1226703 6.92353295,41.3755893 C8.62078362,42.6286799 10.4635233,43.2670728 12.8069483,46.9805 L13.529858,46.2299849" id="Fill-79" fill="#AB2531"></path>
                <path d="M5.7977274,36.9805 C5.7977274,36.9805 7.61476267,32.9153378 5.52376397,29.9805 C5.52376397,29.9805 4.30937695,32.22321 4.37835799,33.6786986 C4.37835799,33.6786986 3.26753164,32.045911 0.529858034,31.2160195 C0.529858034,31.2160195 0.928593358,34.7882976 5.7977274,36.9805" id="Fill-80" fill="#AB2531"></path>
                <path d="M5.0941959,30.9805 C5.0941959,30.9805 7.82267978,27.5528692 5.75673589,23.9805 C5.75673589,23.9805 3.98320129,25.9076693 3.73517556,27.3234526 C3.73517556,27.3234526 2.34864143,25.5796071 0.542973935,24.4712839 C0.542973935,24.4712839 0.050939083,28.596418 5.0941959,30.9805" id="Fill-81" fill="#AB2531"></path>
                <path d="M3.88707203,23.9805 C3.88707203,23.9805 7.59376787,20.9824521 6.22746468,18.0125137 C6.22746468,18.0125137 3.93208351,19.7809216 3.64851115,20.8336272 C3.64851115,20.8336272 2.8565136,18.9363835 0.722764583,17.9805 C0.722764583,17.9805 -0.641697226,21.0216494 3.88707203,23.9805" id="Fill-82" fill="#AB2531"></path>
                <path d="M3.48493276,16.9805 C3.48493276,16.9805 7.09321215,14.0247933 6.4539439,11.1518696 C6.4539439,11.1518696 4.27285997,12.3456773 3.77148332,13.5729721 C3.77148332,13.5729721 3.43977934,11.2881979 2.09125503,9.9805 C2.09125503,9.9805 0.150873571,13.901044 3.48493276,16.9805" id="Fill-83" fill="#AB2531"></path>
                <path d="M4.61095921,10.9805 C4.61095921,10.9805 6.76170321,8.90295206 6.50925401,4.9805 C6.50925401,4.9805 4.05852648,6.58421828 4.61095921,10.9805" id="Fill-84" fill="#AB2531"></path>
                <path d="M68.2625744,21.4995031 L66.8946252,9.90564514 C66.540994,6.91043866 64.2536035,4.47898416 61.2315226,3.88436246 L53.2755095,2.31928442 C44.2025392,0.534238526 34.8568416,0.534238526 25.7836987,2.31928442 L17.8278581,3.88436246 C14.8050872,4.47898416 12.5185593,6.91043866 12.1651006,9.90547645 L10.7971514,21.4995031 C9.90531062,29.0566809 11.2560095,36.7052871 14.6876126,43.5325563 L14.6876126,43.532725 C17.2777459,48.685607 20.9815589,53.2268299 25.5428845,56.8424672 L30.6777827,60.9128846 C35.8378664,65.0030385 43.2215144,65.0030385 48.3815981,60.9128846 L53.5164963,56.8424672 C58.0778219,53.2268299 61.7816349,48.685607 64.3709056,43.532725 L64.3709056,43.5325563 C67.8037163,36.7052871 69.1544151,29.0566809 68.2625744,21.4995031" id="Fill-85" fill="#1A3F4F"></path>
                <path d="M65.529858,46.2299849 C65.529858,46.2299849 68.4470118,43.9241813 68.581259,41.1647376 C68.7155061,38.405294 68.6211703,37.9586937 70.1795254,35.9805 C70.1795254,35.9805 71.0648308,38.1762418 70.4353206,40.305706 C70.4353206,40.305706 71.9864192,38.4379176 74.529858,37.8302596 C74.529858,37.8302596 73.8332243,40.1226703 72.1351795,41.3755893 C70.4389489,42.6286799 68.5957722,43.2670728 66.2518899,46.9805 L65.529858,46.2299849" id="Fill-86" fill="#AB2531"></path>
                <path d="M73.2627705,36.9805 C73.2627705,36.9805 71.4446895,32.9153378 73.5354826,29.9805 C73.5354826,29.9805 74.7511015,32.22321 74.6815866,33.6786986 C74.6815866,33.6786986 75.792042,32.045911 78.529858,31.2160195 C78.529858,31.2160195 78.1305932,34.7882976 73.2627705,36.9805" id="Fill-87" fill="#AB2531"></path>
                <path d="M73.9659391,30.9805 C73.9659391,30.9805 71.2366632,27.5528692 73.303201,23.9805 C73.303201,23.9805 75.0765274,25.9076693 75.3255563,27.3234526 C75.3255563,27.3234526 76.7112813,25.5796071 78.5167404,24.4712839 C78.5167404,24.4712839 79.0087732,28.596418 73.9659391,30.9805" id="Fill-88" fill="#AB2531"></path>
                <path d="M75.1720812,23.9805 C75.1720812,23.9805 71.4671112,20.9824521 72.8316694,18.0125137 C72.8316694,18.0125137 75.1270733,19.7809216 75.4114415,20.8336272 C75.4114415,20.8336272 76.2031717,18.9363835 78.3369561,17.9805 C78.3369561,17.9805 79.7015144,21.0216494 75.1720812,23.9805" id="Fill-89" fill="#AB2531"></path>
                <path d="M75.5740502,16.9805 C75.5740502,16.9805 71.9666012,14.0247933 72.6057641,11.1518696 C72.6057641,11.1518696 74.7872546,12.3456773 75.287469,13.5729721 C75.287469,13.5729721 75.6192084,11.2881979 76.9687452,9.9805 C76.9687452,9.9805 78.9088128,13.901044 75.5740502,16.9805" id="Fill-90" fill="#AB2531"></path>
                <path d="M74.4489724,10.9805 C74.4489724,10.9805 72.2980551,8.90295206 72.5504524,4.9805 C72.5504524,4.9805 75.0005528,6.58421828 74.4489724,10.9805" id="Fill-91" fill="#AB2531"></path>
                <path d="M38.5298294,60.9805 C35.9644473,60.9805 33.4539816,60.0960844 31.4611289,58.4903369 L26.3844283,54.3998511 C22.2046394,51.0322229 18.7411518,46.7150812 16.3679772,41.9158084 C13.1945917,35.4987518 11.9531732,28.3523956 12.7777725,21.2494379 L14.1302177,9.59776649 C14.3474958,7.72569409 15.7422368,6.2182715 17.6006977,5.84667114 L25.4667099,4.2736421 C29.7576961,3.41550297 34.1527165,2.9805 38.5298294,2.9805 C42.9067717,2.9805 47.3017922,3.41550297 51.5927784,4.2736421 L59.4584494,5.84667114 C61.3172514,6.2182715 62.7125041,7.72569409 62.9291,9.59776649 L64.2815452,21.2494379 C65.1069972,28.3523956 63.8654082,35.4987518 60.6918521,41.9154694 C58.3183364,46.7150812 54.8546783,51.0322229 50.6752304,54.3998511 L45.5983593,58.4903369 C43.6053361,60.0960844 41.095041,60.9805 38.5298294,60.9805" id="Fill-92" fill="#FFFFFE"></path>
                <path d="M40.029612,60.9805 C37.601021,60.9805 35.2242775,60.1441603 33.3376815,58.6251084 L28.2272709,54.5109311 C24.0949236,51.1843283 20.6705862,46.9197634 18.3242301,42.1786298 C15.1871141,35.8396697 13.9597709,28.7803151 14.7749095,21.7639285 L16.1365068,10.0447724 C16.3215782,8.45052656 17.5102933,7.16660453 19.0942168,6.85014247 L27.012632,5.26800269 C31.2883325,4.41375975 35.6680713,3.9805 40.029612,3.9805 C44.3913243,3.9805 48.7708914,4.41375975 53.0469353,5.26800269 L60.9646638,6.85014247 C62.5491023,7.16660453 63.7376457,8.45052656 63.9228889,10.0447724 L65.2846579,21.7639285 C66.1001398,28.7803151 64.8726249,35.8396697 61.7353372,42.1786298 C59.3886377,46.9197634 55.9643004,51.1843283 51.8322964,54.5109311 L46.7217141,58.6251084 C44.8351182,60.1441603 42.4583747,60.9805 40.029612,60.9805" id="Fill-93" fill="#1A3F4F"></path>
                <path d="M40.0298038,59.9805 C37.8778382,59.9805 35.772541,59.2406694 34.1013634,57.8977198 L28.9178743,53.7326773 C24.8789774,50.4876761 21.5319204,46.3274668 19.238557,41.7018858 C16.1722063,35.5181035 14.9725874,28.6312578 15.7694311,21.7865302 L17.150325,9.92248546 C17.2703043,8.89266061 18.0392863,8.06358775 19.0642474,7.85921084 L27.0957213,6.25751042 C31.3449738,5.4101403 35.696618,4.9805 40.0298038,4.9805 C44.3629896,4.9805 48.7146337,5.4101403 52.9642345,6.25751042 L60.9950119,7.85921084 C62.0203212,8.06358775 62.7894774,8.89266061 62.9092825,9.92248546 L64.2903506,21.7865302 C65.0870201,28.631603 63.8875753,35.5182761 60.8213989,41.7018858 C58.5276871,46.3271216 55.1808043,50.4873309 51.1420815,53.7326773 L45.9585924,57.8977198 C44.2872407,59.2406694 42.1815952,59.9805 40.0298038,59.9805" id="Fill-94" fill="#FFFFFE"></path>
                <path d="M39.5298049,56.9805 C37.879911,56.9805 36.2653354,56.4008937 34.9839804,55.3486507 L29.9049688,51.1789068 C26.1718066,48.114113 23.077957,44.1849212 20.9580054,39.8164453 C18.1236686,33.9761425 17.0146396,27.4720746 17.7513761,21.0072348 L19.1045621,9.12979808 C19.1223065,8.97392304 19.2313326,8.85330133 19.382843,8.82254106 L27.2523421,7.21903267 C31.2859658,6.39731886 35.4166723,5.9805 39.5298049,5.9805 C43.6431081,5.9805 47.7738145,6.39731886 51.8077795,7.21903267 L59.6762548,8.82254106 C59.8282771,8.85364695 59.9376444,8.97392304 59.9553889,9.12979808 L61.3084043,21.0072348 C62.0449701,27.4720746 60.9361118,33.9761425 58.1019455,39.8164453 C55.9818234,44.1847484 52.8879737,48.1139402 49.1548115,51.1789068 L44.0763119,55.3484779 C42.794445,56.4008937 41.18004,56.9805 39.5298049,56.9805" id="Fill-95" fill="#1A3F4F"></path>
                <polyline id="Fill-96" fill="#AB2531" points="70.529858 50.9805 9.52985803 50.9805 14.8320952 57.4805 9.52985803 63.9805 70.529858 63.9805 65.2277937 57.4805 70.529858 50.9805"></polyline>
                <path d="M53.529858,55.480418 C53.529858,62.3840136 47.4856527,67.9805 40.0297695,67.9805 C32.5740633,67.9805 26.529858,62.3840136 26.529858,55.480418 C26.529858,48.5768225 32.5740633,42.9805 40.0297695,42.9805 C47.4856527,42.9805 53.529858,48.5768225 53.529858,55.480418" id="Fill-97" fill="#FFFFFE"></path>
                <path d="M50.529858,55.4804149 C50.529858,61.8317518 45.3811099,66.9805 39.0297729,66.9805 C32.6786062,66.9805 27.529858,61.8317518 27.529858,55.4804149 C27.529858,49.1292482 32.6786062,43.9805 39.0297729,43.9805 C45.3811099,43.9805 50.529858,49.1292482 50.529858,55.4804149" id="Fill-98" fill="#AB2531"></path>
                <path d="M49.529858,55.4804108 C49.529858,61.2793695 44.8289059,65.9805 39.0297689,65.9805 C33.2308102,65.9805 28.529858,61.2793695 28.529858,55.4804108 C28.529858,49.6814521 33.2308102,44.9805 39.0297689,44.9805 C44.8289059,44.9805 49.529858,49.6814521 49.529858,55.4804108" id="Fill-99" fill="#FFFEFB"></path>
                <path d="M34.529858,42.9705371 L39.5297636,46.9805 L44.529858,42.9705371 C42.9942011,42.333612 41.3045818,41.9805 39.5297636,41.9805 C37.7551343,41.9805 36.0653261,42.333612 34.529858,42.9705371" id="Fill-100" fill="#AB2531"></path>
                <path d="M30.8417771,46.9805 C28.7811068,49.156451 27.529858,52.0019113 27.529858,55.1186556 C27.529858,55.4086237 27.5445459,55.6954777 27.5657838,55.9805 L33.529858,52.5404495 L30.8417771,46.9805" id="Fill-101" fill="#AB2531"></path>
                <path d="M36.529858,66.9805 L34.9576951,60.9805 L29.529858,61.3868047 C31.0758074,64.1964646 33.5822154,66.2567467 36.529858,66.9805" id="Fill-102" fill="#AB2531"></path>
                <path d="M48.217939,46.9805 C50.2786092,49.156451 51.529858,52.0019113 51.529858,55.1186556 C51.529858,55.4086237 51.5151702,55.6954777 51.4939323,55.9805 L45.529858,52.5404495 L48.217939,46.9805" id="Fill-103" fill="#AB2531"></path>
                <path d="M43.529858,66.9805 L45.1018581,60.9805 L50.529858,61.3868047 C48.9837459,64.1964646 46.4775007,66.2567467 43.529858,66.9805" id="Fill-104" fill="#AB2531"></path>
                <polyline id="Fill-105" fill="#AB2531" points="40.0297749 50.9805 36.529858 53.655294 37.912227 57.9805 42.1473227 57.9805 43.529858 53.655294 40.0297749 50.9805"></polyline>
                <path d="M64.0651727,19.9805 L15.9943692,19.9805 L15.7554927,22.0734294 C15.6255132,23.2102098 15.554251,24.3480465 15.529858,25.4839466 C15.5833482,28.0129616 15.89279,30.5240192 16.4581833,32.9805 L63.6015327,32.9805 C64.166926,30.5240192 64.4758451,28.0129616 64.529858,25.4841226 C64.5054651,24.3482225 64.4340287,23.2103858 64.3042234,22.0734294 L64.0651727,19.9805" id="Fill-106" fill="#FFFFFE"></path>
                <polyline id="Fill-107" fill="#0A0B09" points="20.553904 26.9568984 20.553904 27.9790696 22.5128546 27.9790696 22.5128546 25.9919432 20.1273583 25.9919432 18.529858 24.4194445 18.529858 21.6316707 20.1273583 19.9805 22.9394003 19.9805 24.529858 21.6316707 24.529858 23.0184056 22.5128546 23.0184056 22.5128546 21.9676264 20.553904 21.9676264 20.553904 23.9905128 22.9394003 23.9905128 24.529858 25.5701635 24.529858 28.3507853 22.9394003 29.9805 20.1273583 29.9805 18.529858 28.3507853 18.529858 26.9568984 20.553904 26.9568984"></polyline>
                <path d="M26.553904,27.9790696 L28.5200874,27.9790696 L28.5200874,21.9676264 L26.553904,21.9676264 L26.553904,27.9790696 Z M24.529858,21.6316707 L26.1201255,19.9805 L28.9394003,19.9805 L30.529858,21.6316707 L30.529858,28.3507853 L28.9394003,29.9805 L26.1201255,29.9805 L24.529858,28.3507853 L24.529858,21.6316707 L24.529858,21.6316707 Z" id="Fill-108" fill="#0A0B09"></path>
                <polyline id="Fill-109" fill="#0A0B09" points="31.529858 21.6316707 33.1201255 19.9805 35.9394003 19.9805 37.529858 21.6316707 37.529858 23.0184056 35.5200874 23.0184056 35.5200874 21.9676264 33.4960415 21.9676264 33.4960415 27.9790696 35.5200874 27.9790696 35.5200874 26.9568984 37.529858 26.9568984 37.529858 28.3507853 35.9394003 29.9805 33.1201255 29.9805 31.529858 28.3507853 31.529858 21.6316707"></polyline>
                <polyline id="Fill-110" fill="#0A0B09" points="38.529858 21.6316707 40.1201255 19.9805 42.9394003 19.9805 44.529858 21.6316707 44.529858 23.0184056 42.5200874 23.0184056 42.5200874 21.9676264 40.4960415 21.9676264 40.4960415 27.9790696 42.5200874 27.9790696 42.5200874 26.9568984 44.529858 26.9568984 44.529858 28.3507853 42.9394003 29.9805 40.1201255 29.9805 38.529858 28.3507853 38.529858 21.6316707"></polyline>
                <polyline id="Fill-111" fill="#0A0B09" points="46.3536096 27.9790696 46.3536096 21.9676264 45.529858 21.9676264 45.529858 19.9805 51.529858 19.9805 51.529858 23.0184056 49.7962405 23.0184056 49.7962405 21.9676264 48.0749251 21.9676264 48.0749251 23.9905128 49.7962405 23.9905128 49.7962405 25.9919432 48.0749251 25.9919432 48.0749251 27.9790696 49.7962405 27.9790696 49.7962405 26.9568984 51.529858 26.9568984 51.529858 29.9805 45.529858 29.9805 45.529858 27.9790696 46.3536096 27.9790696"></polyline>
                <path d="M57.1883361,23.9905128 L58.8712153,23.9905128 L58.8712153,21.9676264 L57.1883361,21.9676264 L57.1883361,23.9905128 Z M55.4179939,27.9790696 L55.4179939,21.9676264 L54.529858,21.9676264 L54.529858,19.9805 L59.2528568,19.9805 L60.6352983,21.6316707 L60.6352983,24.4194445 L60.1036027,25.019836 L60.6352983,25.5701635 L60.6352983,27.9790696 L61.529858,27.9790696 L61.529858,29.9805 L58.1331335,29.9805 L58.1331335,27.9790696 L58.8712153,27.9790696 L58.8712153,25.9919432 L57.1883361,25.9919432 L57.1883361,27.9790696 L57.9265826,27.9790696 L57.9265826,29.9805 L54.529858,29.9805 L54.529858,27.9790696 L55.4179939,27.9790696 L55.4179939,27.9790696 Z" id="Fill-112" fill="#0A0B09"></path>
                <polyline id="Fill-113" fill="#FFFFFE" points="33.529858 36.6409147 34.0599159 35.9805 34.9998001 35.9805 35.529858 36.6409147 35.529858 37.1956631 34.8599753 37.1956631 34.8599753 36.7752871 34.1853427 36.7752871 34.1853427 39.1799012 34.8599753 39.1799012 34.8599753 38.7709724 35.529858 38.7709724 35.529858 39.3285386 34.9998001 39.9805 34.0599159 39.9805 33.529858 39.3285386 33.529858 36.6409147"></polyline>
                <polyline id="Fill-114" fill="#FFFFFE" points="36.529858 39.1799012 36.8207832 39.1799012 36.8207832 36.7752871 36.529858 36.7752871 36.529858 35.9805 37.6732381 35.9805 37.6732381 36.7752871 37.3781478 36.7752871 37.3781478 39.1799012 37.9519204 39.1799012 37.9519204 38.7709724 38.529858 38.7709724 38.529858 39.9805 36.529858 39.9805 36.529858 39.1799012"></polyline>
                <polyline id="Fill-115" fill="#FFFFFE" points="41.4562513 35.9805 41.4562513 36.7752871 41.0177102 36.7752871 41.0177102 39.1799012 42.0238533 39.1799012 42.0238533 36.7752871 41.6034648 36.7752871 41.6034648 35.9805 43.529858 35.9805 43.529858 36.7752871 43.0410651 36.7752871 43.0410651 39.3285386 42.210914 39.9805 40.8379548 39.9805 40.018651 39.3285386 40.018651 36.7752871 39.529858 36.7752871 39.529858 35.9805 41.4562513 35.9805"></polyline>
                <path d="M45.3781478,39.1799012 L45.9519204,39.1799012 L45.9519204,38.384938 L45.3781478,38.384938 L45.3781478,39.1799012 Z M45.3781478,37.5845153 L45.9519204,37.5845153 L45.9519204,36.7752871 L45.3781478,36.7752871 L45.3781478,37.5845153 Z M44.8043753,39.1799012 L44.8043753,36.7752871 L44.529858,36.7752871 L44.529858,35.9805 L46.0544068,35.9805 L46.529858,36.6409147 L46.529858,37.756047 L46.2285833,37.9960858 L46.529858,38.2164001 L46.529858,39.3285386 L46.0544068,39.9805 L44.529858,39.9805 L44.529858,39.1799012 L44.8043753,39.1799012 L44.8043753,39.1799012 Z" id="Fill-116" fill="#FFFFFE"></path>
                <polyline id="Fill-117" fill="#FFFFFE" points="17.529858 58.2164778 18.072077 57.5844447 18.8591879 57.5844447 18.8591879 56.7754282 18.1956947 56.7754282 18.1956947 57.1956096 17.529858 57.1956096 17.529858 56.6410618 18.072077 55.9805 18.9804622 55.9805 19.529858 56.6410618 19.529858 57.756145 18.9804622 58.3850082 18.1956947 58.3850082 18.1956947 59.1799365 18.8591879 59.1799365 18.8591879 58.7710257 19.529858 58.7710257 19.529858 59.9805 17.529858 59.9805 17.529858 58.2164778"></polyline>
                <path d="M22.1957435,59.1799365 L22.8592853,59.1799365 L22.8592853,56.7754282 L22.1957435,56.7754282 L22.1957435,59.1799365 Z M21.529858,59.3285673 L21.529858,56.6410618 L22.0721167,55.9805 L22.9805684,55.9805 L23.529858,56.6410618 L23.529858,59.3285673 L22.9805684,59.9805 L22.0721167,59.9805 L21.529858,59.3285673 L21.529858,59.3285673 Z" id="Fill-118" fill="#FFFFFE"></path>
                <polyline id="Fill-119" fill="#FFFFFE" points="56.529858 59.1799365 57.0415372 59.1799365 57.0415372 57.1956096 56.529858 57.1956096 56.529858 56.586646 57.0415372 55.9805 58.0574032 55.9805 58.0574032 59.1799365 58.529858 59.1799365 58.529858 59.9805 56.529858 59.9805 56.529858 59.1799365"></polyline>
                <polyline id="Fill-120" fill="#FFFFFE" points="57.529858 56.6410618 58.060025 55.9805 58.9996911 55.9805 59.529858 56.6410618 59.529858 57.756145 59.3539768 57.9961732 59.529858 58.2164778 59.529858 59.3285673 58.9996911 59.9805 58.060025 59.9805 57.529858 59.3285673 57.529858 58.7710257 58.204589 58.7710257 58.204589 59.1799365 58.874422 59.1799365 58.874422 58.3850082 58.532307 58.3850082 58.532307 57.5844447 58.874422 57.5844447 58.874422 56.7754282 58.204589 56.7754282 58.204589 57.1956096 57.529858 57.1956096 57.529858 56.6410618"></polyline>
                <polyline id="Fill-121" fill="#FFFFFE" points="40.0297706 9.9805 41.1113772 11.9556386 43.529858 12.2722663 41.7799018 13.8096766 42.1929838 15.9805 40.0297706 14.9555598 37.8667322 15.9805 38.2798143 13.8096766 36.529858 12.2722663 38.9483389 11.9556386 40.0297706 9.9805"></polyline>
            </g>
        </g>
    </g>
</svg>