<?xml version="1.0" encoding="UTF-8"?>
<svg width="148px" height="128px" viewBox="0 0 148 128" version="1.1" xmlns="http://www.w3.org/2000/svg" xmlns:xlink="http://www.w3.org/1999/xlink">
    <title>5B7C6B45-4992-4F4C-8D8A-0075B97B7519</title>
    <g id="Page-1" stroke="none" stroke-width="1" fill="none" fill-rule="evenodd">
        <g id="Desktop-Summary" transform="translate(-144.000000, -650.000000)">
            <g id="Group-2" transform="translate(144.470142, 650.019500)">
                <path d="M23.529858,87.6159271 C23.529858,87.6159271 18.3433709,83.4235569 18.1037514,78.4063866 C17.8638095,73.3892163 18.0328009,72.5772158 15.2641159,68.9805 C15.2641159,68.9805 13.6886906,72.9727577 14.8087422,76.844511 C14.8087422,76.844511 12.0494098,73.448532 7.52985803,72.3436993 C7.52985803,72.3436993 8.76762309,76.5117188 11.7852801,78.7897532 C14.8026146,81.0680999 18.0785962,82.2288142 22.2446851,88.9805 L23.529858,87.6159271" id="Fill-79" fill="#AB2531"></path>
                <path d="M12.1876185,69.9805 C12.1876185,69.9805 15.5188499,62.430913 11.6853523,56.9805 C11.6853523,56.9805 9.45897605,61.1455328 9.58544128,63.8485832 C9.58544128,63.8485832 7.54892631,60.8162633 2.52985803,59.2750362 C2.52985803,59.2750362 3.2608728,65.9092669 12.1876185,69.9805" id="Fill-80" fill="#AB2531"></path>
                <path d="M9.13708781,57.9805 C9.13708781,57.9805 13.6845609,51.6149 10.2413211,44.9805 C10.2413211,44.9805 7.28543013,48.5595288 6.87205391,51.1888406 C6.87205391,51.1888406 4.56116369,47.9502703 1.55171787,45.8919559 C1.55171787,45.8919559 0.731659783,53.5529191 9.13708781,57.9805" id="Fill-81" fill="#AB2531"></path>
                <path d="M6.12521469,44.9805 C6.12521469,44.9805 12.3030411,38.9844041 10.0258691,33.0445275 C10.0258691,33.0445275 6.20023383,36.5813433 5.72761323,38.6867544 C5.72761323,38.6867544 4.40761731,34.892267 0.851368949,32.9805 C0.851368949,32.9805 -1.42273407,39.0627987 6.12521469,44.9805" id="Fill-82" fill="#AB2531"></path>
                <path d="M6.04899254,30.9805 C6.04899254,30.9805 12.5438954,25.4913305 11.3932126,20.1559007 C11.3932126,20.1559007 7.46726151,22.3729721 6.56478355,24.6522339 C6.56478355,24.6522339 5.96771638,20.4090818 3.54037263,17.9805 C3.54037263,17.9805 0.0476860003,25.2615102 6.04899254,30.9805" id="Fill-83" fill="#AB2531"></path>
                <path d="M8.73261097,19.9805 C8.73261097,19.9805 14.109471,16.1716621 13.478348,8.9805 C13.478348,8.9805 7.35152915,11.9206502 8.73261097,19.9805" id="Fill-84" fill="#AB2531"></path>
                <path d="M127.032157,39.7386169 L124.484942,17.8391075 C123.826456,12.1814953 119.567177,7.58874786 113.939854,6.46557354 L99.1252091,3.50931502 C82.2307126,0.13756166 64.8283791,0.13756166 47.9335614,3.50931502 L33.1192375,6.46557354 C27.4906296,7.58874786 23.2329569,12.1814953 22.5747924,17.8387889 L20.0275767,39.7386169 C18.3669077,54.0132862 20.8820021,68.4606535 27.2718838,81.3566064 L27.2718838,81.3569251 C32.0948906,91.0901466 38.9916458,99.668012 47.4851486,106.497549 L57.0466833,114.186115 C66.655115,121.911962 80.4039767,121.911962 90.0124084,114.186115 L99.5739431,106.497549 C108.067446,99.668012 114.964201,91.0901466 119.785602,81.3569251 L119.785602,81.3566064 C126.177732,68.4606535 128.692826,54.0132862 127.032157,39.7386169" id="Fill-85" fill="#1A3F4F"></path>
                <path d="M123.529858,87.6159271 C123.529858,87.6159271 128.715909,83.4235569 128.954571,78.4063866 C129.193232,73.3892163 129.025524,72.5772158 131.795933,68.9805 C131.795933,68.9805 133.36981,72.9727577 132.25068,76.844511 C132.25068,76.844511 135.008189,73.448532 139.529858,72.3436993 C139.529858,72.3436993 138.291398,76.5117188 135.272652,78.7897532 C132.257131,81.0680999 128.980372,82.2288142 124.81347,88.9805 L123.529858,87.6159271" id="Fill-86" fill="#AB2531"></path>
                <path d="M135.873531,69.9805 C135.873531,69.9805 132.540382,62.430913 136.373503,56.9805 C136.373503,56.9805 138.602138,61.1455328 138.474694,63.8485832 C138.474694,63.8485832 140.510529,60.8162633 145.529858,59.2750362 C145.529858,59.2750362 144.797872,65.9092669 135.873531,69.9805" id="Fill-87" fill="#AB2531"></path>
                <path d="M138.923326,57.9805 C138.923326,57.9805 134.374533,51.6149 137.818763,44.9805 C137.818763,44.9805 140.774307,48.5595288 141.189355,51.1888406 C141.189355,51.1888406 143.498897,47.9502703 146.507995,45.8919559 C146.507995,45.8919559 147.32805,53.5529191 138.923326,57.9805" id="Fill-88" fill="#AB2531"></path>
                <path d="M140.933563,44.9805 C140.933563,44.9805 134.758613,38.9844041 137.032877,33.0445275 C137.032877,33.0445275 140.85855,36.5813433 141.332497,38.6867544 C141.332497,38.6867544 142.652047,34.892267 146.208355,32.9805 C146.208355,32.9805 148.482619,39.0627987 140.933563,44.9805" id="Fill-89" fill="#AB2531"></path>
                <path d="M141.009404,30.9805 C141.009404,30.9805 134.515996,25.4913305 135.666489,20.1559007 C135.666489,20.1559007 139.593172,22.3729721 140.493558,24.6522339 C140.493558,24.6522339 141.090689,20.4090818 143.519855,17.9805 C143.519855,17.9805 147.011977,25.2615102 141.009404,30.9805" id="Fill-90" fill="#AB2531"></path>
                <path d="M139.327644,19.9805 C139.327644,19.9805 133.950351,16.1716621 134.581344,8.9805 C134.581344,8.9805 140.706595,11.9206502 139.327644,19.9805" id="Fill-91" fill="#AB2531"></path>
                <path d="M73.0298046,114.9805 C68.2443803,114.9805 63.5613962,113.318409 59.8439594,110.300711 L50.3739603,102.613418 C42.5770464,96.2845999 36.1163099,88.1713509 31.6894265,79.1520279 C25.769842,67.092387 23.4541191,53.6621658 24.9923139,40.313504 L27.5151443,18.4163974 C27.9204515,14.8981923 30.52218,12.0652775 33.9889244,11.3669251 L48.6620624,8.41071533 C56.666402,6.79800558 64.8648055,5.9805 73.0298046,5.9805 C81.1944855,5.9805 89.392889,6.79800558 97.3972286,8.41071533 L112.06973,11.3669251 C115.537111,12.0652775 118.139794,14.8981923 118.543829,18.4163974 L121.066659,40.313504 C122.606445,53.6621658 120.290403,67.092387 114.370501,79.1513907 C109.942981,88.1713509 103.481927,96.2845999 95.6856489,102.613418 L86.2153316,110.300711 C82.4975767,113.318409 77.8149108,114.9805 73.0298046,114.9805" id="Fill-92" fill="#FFFFFE"></path>
                <path d="M74.0293997,113.9805 C69.5055537,113.9805 65.0782864,112.410529 61.564039,109.558975 L52.0446467,101.835871 C44.347137,95.5911953 37.9684694,87.5857839 33.5978061,78.6857612 C27.7541586,66.7863098 25.467931,53.5345389 26.9863264,40.3634271 L29.5226351,18.3643096 C29.867376,15.3716025 32.0816493,12.9614331 35.0320949,12.3673727 L49.7820841,9.39739102 C57.7466242,7.79381215 65.9049612,6.9805 74.0293997,6.9805 C82.154158,6.9805 90.3121752,7.79381215 98.2773549,9.39739102 L113.026065,12.3673727 C115.97747,12.9614331 118.191423,15.3716025 118.536484,18.3643096 L121.073113,40.3634271 C122.592148,53.5345389 120.3056,66.7863098 114.461633,78.6857612 C110.09033,87.5857839 103.711662,95.5911953 96.0147923,101.835871 L86.4950802,109.558975 C82.9808328,112.410529 78.5535655,113.9805 74.0293997,113.9805" id="Fill-93" fill="#1A3F4F"></path>
                <path d="M73.5297584,110.9805 C69.5771686,110.9805 65.7102961,109.608451 62.6407862,107.117889 L53.120092,99.3936288 C45.7017099,93.3756266 39.5540543,85.6603294 35.341754,77.0819792 C29.7096814,65.6138738 27.5062998,52.8419053 28.9698902,40.148047 L31.5062259,18.1456367 C31.7265961,16.2357797 33.139012,14.6982264 35.0215936,14.3192001 L49.7732803,11.3487739 C57.5780298,9.77728747 65.5708457,8.9805 73.5297584,8.9805 C81.4886711,8.9805 89.4814869,9.77728747 97.2868761,11.3487739 L112.037283,14.3192001 C113.920505,14.6982264 115.33324,16.2357797 115.553291,18.1456367 L118.089946,40.148047 C119.553217,52.8425456 117.350155,65.6141939 111.718402,77.0819792 C107.505462,85.6596891 101.358127,93.3749863 93.9400644,99.3936288 L84.4193702,107.117889 C81.3495404,109.608451 77.4820283,110.9805 73.5297584,110.9805" id="Fill-94" fill="#FFFFFE"></path>
                <path d="M73.5297589,106.9805 C70.4549567,106.9805 67.4459749,105.912206 65.0579951,103.972778 L55.5925645,96.2873674 C48.6353077,90.6385318 42.869497,83.3964921 38.9186782,75.3447913 C33.636505,64.5803116 31.5696782,52.5924219 32.9426871,40.6768347 L35.4645337,18.7850886 C35.4976029,18.4977895 35.7007879,18.2754671 35.9831482,18.2187718 L50.6490329,15.2632857 C58.1662408,13.7487544 65.8643755,12.9805 73.5297589,12.9805 C81.1954604,12.9805 88.8935951,13.7487544 96.4114389,15.2632857 L111.075416,18.2187718 C111.35873,18.2761042 111.562551,18.4977895 111.59562,18.7850886 L114.117149,40.6768347 C115.48984,52.5924219 113.423331,64.5803116 108.141476,75.3447913 C104.190339,83.3961736 98.4245282,90.6382133 91.4672714,96.2873674 L82.0027947,103.972459 C79.613861,105.912206 76.6051971,106.9805 73.5297589,106.9805" id="Fill-95" fill="#1A3F4F"></path>
                <polyline id="Fill-96" fill="#AB2531" points="129.529858 94.9805 16.529858 94.9805 26.352035 107.9805 16.529858 120.9805 129.529858 120.9805 119.708001 107.9805 129.529858 94.9805"></polyline>
                <path d="M98.529858,102.980343 C98.529858,116.235246 87.5607447,126.9805 74.0296974,126.9805 C60.4989714,126.9805 49.529858,116.235246 49.529858,102.980343 C49.529858,89.7254391 60.4989714,78.9805 74.0296974,78.9805 C87.5607447,78.9805 98.529858,89.7254391 98.529858,102.980343" id="Fill-97" fill="#FFFFFE"></path>
                <path d="M94.529858,102.480341 C94.529858,114.35458 84.9039376,123.9805 73.0296989,123.9805 C61.1557785,123.9805 51.529858,114.35458 51.529858,102.480341 C51.529858,90.6064205 61.1557785,80.9805 73.0296989,80.9805 C84.9039376,80.9805 94.529858,90.6064205 94.529858,102.480341" id="Fill-98" fill="#AB2531"></path>
                <path d="M92.529858,102.980339 C92.529858,113.473692 84.0233732,121.9805 73.5296967,121.9805 C63.0363428,121.9805 54.529858,113.473692 54.529858,102.980339 C54.529858,92.4869848 63.0363428,83.9805 73.5296967,83.9805 C84.0233732,83.9805 92.529858,92.4869848 92.529858,102.980339" id="Fill-99" fill="#FFFEFB"></path>
                <path d="M64.529858,82.7625668 L73.0296975,89.9805 L81.529858,82.7625668 C78.9192412,81.6161016 76.0468884,80.9805 73.0296975,80.9805 C70.0128277,80.9805 67.1401537,81.6161016 64.529858,82.7625668" id="Fill-100" fill="#AB2531"></path>
                <path d="M57.0497231,87.9805 C53.6152727,91.8488573 51.529858,96.9074534 51.529858,102.448332 C51.529858,102.963831 51.5543378,103.473794 51.5897343,103.9805 L61.529858,97.8648547 L57.0497231,87.9805" id="Fill-101" fill="#AB2531"></path>
                <path d="M69.529858,123.9805 L66.3855322,112.9805 L55.529858,113.725392 C58.6217567,118.876435 63.6345728,122.653619 69.529858,123.9805" id="Fill-102" fill="#AB2531"></path>
                <path d="M90.009993,87.9805 C93.4444434,91.8488573 95.529858,96.9074534 95.529858,102.448332 C95.529858,102.963831 95.5053782,103.473794 95.4699818,103.9805 L85.529858,97.8648547 L90.009993,87.9805" id="Fill-103" fill="#AB2531"></path>
                <path d="M78.529858,123.9805 L81.6738582,112.9805 L92.529858,113.725392 C89.4376337,118.876435 84.4251433,122.653619 78.529858,123.9805" id="Fill-104" fill="#AB2531"></path>
                <polyline id="Fill-105" fill="#AB2531" points="73.0297036 95.9805 66.529858 100.947975 69.0971148 108.9805 76.9622924 108.9805 79.529858 100.947975 73.0297036 95.9805"></polyline>
                <path d="M117.676354,36.9805 L29.3830417,36.9805 L28.944289,40.8443697 C28.7055512,42.9430411 28.5746614,45.0436627 28.529858,47.1407091 C28.6281054,51.80966 29.1964678,56.4454585 30.2349453,60.9805 L116.824771,60.9805 C117.863248,56.4454585 118.430651,51.80966 118.529858,47.1410341 C118.485055,45.0439878 118.353845,42.9433662 118.115427,40.8443697 L117.676354,36.9805" id="Fill-106" fill="#FFFFFE"></path>
                <polyline id="Fill-107" fill="#0A0B09" points="38.9032679 51.8403773 38.9032679 53.5780683 42.1681856 53.5780683 42.1681856 50.1999534 38.1923584 50.1999534 35.529858 47.5267057 35.529858 42.7874901 38.1923584 39.9805 42.8790951 39.9805 45.529858 42.7874901 45.529858 45.1449395 42.1681856 45.1449395 42.1681856 43.3586149 38.9032679 43.3586149 38.9032679 46.7975218 42.8790951 46.7975218 45.529858 49.4829279 45.529858 54.2099851 42.8790951 56.9805 38.1923584 56.9805 35.529858 54.2099851 35.529858 51.8403773 38.9032679 51.8403773"></polyline>
                <path d="M50.9032679,53.5780683 L54.1802403,53.5780683 L54.1802403,43.3586149 L50.9032679,43.3586149 L50.9032679,53.5780683 Z M47.529858,42.7874901 L50.1803037,39.9805 L54.8790951,39.9805 L57.529858,42.7874901 L57.529858,54.2099851 L54.8790951,56.9805 L50.1803037,56.9805 L47.529858,54.2099851 L47.529858,42.7874901 L47.529858,42.7874901 Z" id="Fill-108" fill="#0A0B09"></path>
                <polyline id="Fill-109" fill="#0A0B09" points="59.529858 42.7874901 62.1803037 39.9805 66.8790951 39.9805 69.529858 42.7874901 69.529858 45.1449395 66.1802403 45.1449395 66.1802403 43.3586149 62.8068304 43.3586149 62.8068304 53.5780683 66.1802403 53.5780683 66.1802403 51.8403773 69.529858 51.8403773 69.529858 54.2099851 66.8790951 56.9805 62.1803037 56.9805 59.529858 54.2099851 59.529858 42.7874901"></polyline>
                <polyline id="Fill-110" fill="#0A0B09" points="72.529858 42.7874901 75.1803037 39.9805 79.8790951 39.9805 82.529858 42.7874901 82.529858 45.1449395 79.1802403 45.1449395 79.1802403 43.3586149 75.8068304 43.3586149 75.8068304 53.5780683 79.1802403 53.5780683 79.1802403 51.8403773 82.529858 51.8403773 82.529858 54.2099851 79.8790951 56.9805 75.1803037 56.9805 72.529858 54.2099851 72.529858 42.7874901"></polyline>
                <polyline id="Fill-111" fill="#0A0B09" points="86.1773612 53.5780683 86.1773612 43.3586149 84.529858 43.3586149 84.529858 39.9805 96.529858 39.9805 96.529858 45.1449395 93.062623 45.1449395 93.062623 43.3586149 89.6199921 43.3586149 89.6199921 46.7975218 93.062623 46.7975218 93.062623 50.1999534 89.6199921 50.1999534 89.6199921 53.5780683 93.062623 53.5780683 93.062623 51.8403773 96.529858 51.8403773 96.529858 56.9805 84.529858 56.9805 84.529858 53.5780683 86.1773612 53.5780683"></polyline>
                <path d="M104.467032,46.7975218 L107.592379,46.7975218 L107.592379,43.3586149 L104.467032,43.3586149 L104.467032,46.7975218 Z M101.179253,53.5780683 L101.179253,43.3586149 L99.529858,43.3586149 L99.529858,39.9805 L108.301141,39.9805 L110.868533,42.7874901 L110.868533,47.5267057 L109.881098,48.5473712 L110.868533,49.4829279 L110.868533,53.5780683 L112.529858,53.5780683 L112.529858,56.9805 L106.221655,56.9805 L106.221655,53.5780683 L107.592379,53.5780683 L107.592379,50.1999534 L104.467032,50.1999534 L104.467032,53.5780683 L105.838061,53.5780683 L105.838061,56.9805 L99.529858,56.9805 L99.529858,53.5780683 L101.179253,53.5780683 L101.179253,53.5780683 Z" id="Fill-112" fill="#0A0B09"></path>
                <polyline id="Fill-113" fill="#FFFFFE" points="61.529858 68.1362258 62.5899738 66.9805 64.4697423 66.9805 65.529858 68.1362258 65.529858 69.1070355 64.1900926 69.1070355 64.1900926 68.3713775 62.8408273 68.3713775 62.8408273 72.5794521 64.1900926 72.5794521 64.1900926 71.8638267 65.529858 71.8638267 65.529858 72.8395675 64.4697423 73.9805 62.5899738 73.9805 61.529858 72.8395675 61.529858 68.1362258"></polyline>
                <polyline id="Fill-114" fill="#FFFFFE" points="67.529858 72.5794521 68.2571709 72.5794521 68.2571709 68.3713775 67.529858 68.3713775 67.529858 66.9805 70.3883081 66.9805 70.3883081 68.3713775 69.6505825 68.3713775 69.6505825 72.5794521 71.0850139 72.5794521 71.0850139 71.8638267 72.529858 71.8638267 72.529858 73.9805 67.529858 73.9805 67.529858 72.5794521"></polyline>
                <polyline id="Fill-115" fill="#FFFFFE" points="76.4194479 66.9805 76.4194479 68.3713775 75.7616362 68.3713775 75.7616362 72.5794521 77.2708509 72.5794521 77.2708509 68.3713775 76.6402681 68.3713775 76.6402681 66.9805 79.529858 66.9805 79.529858 68.3713775 78.7966686 68.3713775 78.7966686 72.8395675 77.551442 73.9805 75.4920031 73.9805 74.2630475 72.8395675 74.2630475 68.3713775 73.529858 68.3713775 73.529858 66.9805 76.4194479 66.9805"></polyline>
                <path d="M82.6505825,72.5794521 L84.0850139,72.5794521 L84.0850139,71.1882665 L82.6505825,71.1882665 L82.6505825,72.5794521 Z M82.6505825,69.7875268 L84.0850139,69.7875268 L84.0850139,68.3713775 L82.6505825,68.3713775 L82.6505825,69.7875268 Z M81.2161511,72.5794521 L81.2161511,68.3713775 L80.529858,68.3713775 L80.529858,66.9805 L84.34123,66.9805 L85.529858,68.1362258 L85.529858,70.0877073 L84.7766711,70.5077751 L85.529858,70.8933253 L85.529858,72.8395675 L84.34123,73.9805 L80.529858,73.9805 L80.529858,72.5794521 L81.2161511,72.5794521 L81.2161511,72.5794521 Z" id="Fill-116" fill="#FFFFFE"></path>
                <polyline id="Fill-117" fill="#FFFFFE" points="32.529858 107.893461 33.614296 106.787403 35.1885179 106.787403 35.1885179 105.371624 33.8615314 105.371624 33.8615314 106.106942 32.529858 106.106942 32.529858 105.136483 33.614296 103.9805 35.4310664 103.9805 36.529858 105.136483 36.529858 107.087879 35.4310664 108.188389 33.8615314 108.188389 33.8615314 109.579514 35.1885179 109.579514 35.1885179 108.86392 36.529858 108.86392 36.529858 110.9805 32.529858 110.9805 32.529858 107.893461"></polyline>
                <path d="M40.8616289,109.579514 L42.1887126,109.579514 L42.1887126,105.371624 L40.8616289,105.371624 L40.8616289,109.579514 Z M39.529858,109.839618 L39.529858,105.136483 L40.6143754,103.9805 L42.4312789,103.9805 L43.529858,105.136483 L43.529858,109.839618 L42.4312789,110.9805 L40.6143754,110.9805 L39.529858,109.839618 L39.529858,109.839618 Z" id="Fill-118" fill="#FFFFFE"></path>
                <polyline id="Fill-119" fill="#FFFFFE" points="104.529858 109.579514 105.297377 109.579514 105.297377 106.106942 104.529858 106.106942 104.529858 105.041255 105.297377 103.9805 106.821176 103.9805 106.821176 109.579514 107.529858 109.579514 107.529858 110.9805 104.529858 110.9805 104.529858 109.579514"></polyline>
                <polyline id="Fill-120" fill="#FFFFFE" points="108.529858 105.136483 109.590192 103.9805 111.469524 103.9805 112.529858 105.136483 112.529858 107.087879 112.178096 107.507928 112.529858 107.893461 112.529858 109.839618 111.469524 110.9805 109.590192 110.9805 108.529858 109.839618 108.529858 108.86392 109.87932 108.86392 109.87932 109.579514 111.218986 109.579514 111.218986 108.188389 110.534756 108.188389 110.534756 106.787403 111.218986 106.787403 111.218986 105.371624 109.87932 105.371624 109.87932 106.106942 108.529858 106.106942 108.529858 105.136483"></polyline>
                <polyline id="Fill-121" fill="#FFFFFE" points="73.0296956 18.9805 75.0383936 22.9307773 79.529858 23.5640326 76.2799393 26.6388533 77.0470917 30.9805 73.0296956 28.9306196 69.0126244 30.9805 69.7797768 26.6388533 66.529858 23.5640326 71.0213225 22.9307773 73.0296956 18.9805"></polyline>
            </g>
        </g>
    </g>
</svg>