<?xml version="1.0" encoding="UTF-8"?>
<svg width="148px" height="186px" viewBox="0 0 148 186" version="1.1" xmlns="http://www.w3.org/2000/svg" xmlns:xlink="http://www.w3.org/1999/xlink">
    <title>31000E8D-3B58-4CBD-96EF-87F06AA354F8</title>
    <g id="Page-1" stroke="none" stroke-width="1" fill="none" fill-rule="evenodd">
        <g id="Desktop-Summary" transform="translate(-144.000000, -302.000000)">
            <g id="Group" transform="translate(144.157000, 302.801000)">
                <path d="M72.63961,170.672915 C63.7423506,166.787735 55.4982483,162.235919 48.1358494,157.144276 C24.1580583,140.563557 9.843,112.912667 9.843,83.1786356 L9.843,38.5823001 C9.843,35.0626319 12.6974803,32.199 16.2059004,32.199 L131.479708,32.199 C134.988128,32.199 137.843,35.0626319 137.843,38.5823001 L137.843,83.1590055 C137.843,113.380647 122.995711,141.401367 98.1264326,158.115571 C91.1405088,162.810294 83.3758058,167.034681 75.04639,170.672915 L73.843,171.199 L72.63961,170.672915" id="Fill-1" fill="#1A3F4F"></path>
                <path d="M18.1502671,37.199 C16.8778858,37.199 15.843,38.2425501 15.843,39.5255841 L15.843,83.2280416 C15.843,111.073667 29.1697465,136.961205 51.491196,152.477158 C58.3605683,157.251449 66.0468939,161.530596 74.3431956,165.199 C82.1077735,161.764951 89.3406274,157.79591 95.8488656,153.398796 C119.013483,137.751068 132.843,111.511603 132.843,83.2091038 L132.843,39.5255841 C132.843,38.2425501 131.808114,37.199 130.536515,37.199 L18.1502671,37.199" id="Fill-2" fill="#FFFEFB"></path>
                <path d="M78.843,182.00168 C78.843,182.00168 86.7142139,181.691766 90.6212559,177.114246 C94.5282979,172.536725 94.9686733,171.649459 100.168673,170.199 C100.168673,170.199 98.6912338,175.086041 94.8127566,177.959429 C94.8127566,177.959429 99.8564432,176.691851 104.843,178.832537 C104.843,178.832537 100.637614,181.902964 96.1763333,181.931281 C91.7154498,181.959205 87.836576,180.74826 79.0278783,184.199 L78.843,182.00168" id="Fill-3" fill="#AB2531"></path>
                <path d="M102.843,172.563906 C102.843,172.563906 105.102885,163.47749 112.284804,161.199 C112.284804,161.199 111.383483,166.478362 109.400809,168.826298 C109.400809,168.826298 113.310793,167.49249 118.843,169.548679 C118.843,169.548679 113.602328,175.022798 102.843,172.563906" id="Fill-4" fill="#AB2531"></path>
                <path d="M114.843,163.952603 C114.843,163.952603 115.288695,154.950786 122.893118,151.199 C122.893118,151.199 122.990735,156.534281 121.528421,159.244745 C121.528421,159.244745 125.790134,157.846888 129.843,158.017786 C129.843,158.017786 125.246822,165.650428 114.843,163.952603" id="Fill-5" fill="#AB2531"></path>
                <path d="M125.897589,154.199 C125.897589,154.199 124.938089,144.330804 131.064425,140.199 C131.064425,140.199 131.783954,146.141962 130.690882,148.466573 C130.690882,148.466573 134.490994,145.736751 138.843,146.304523 C138.843,146.304523 136.451329,153.631229 125.897589,154.199" id="Fill-6" fill="#AB2531"></path>
                <path d="M135.316223,141.199 C135.316223,141.199 133.171302,131.349928 138.014473,127.199 C138.014473,127.199 140.090228,132.123536 139.31549,134.909549 C139.31549,134.909549 142.871554,131.377823 146.843,130.871382 C146.843,130.871382 144.933398,140.214014 135.316223,141.199" id="Fill-7" fill="#AB2531"></path>
                <path d="M142.298939,129.199 C142.298939,129.199 139.953761,121.611041 145.900927,115.199 C145.900927,115.199 149.613369,122.507053 142.298939,129.199" id="Fill-8" fill="#AB2531"></path>
                <path d="M68.843,182.00168 C68.843,182.00168 60.9717861,181.691766 57.0647441,177.114246 C53.1577021,172.536725 52.7173267,171.649459 47.5173267,170.199 C47.5173267,170.199 48.9947662,175.086041 52.8736401,177.959429 C52.8736401,177.959429 47.8299535,176.691851 42.843,178.832537 C42.843,178.832537 47.0483864,181.902964 51.5096667,181.931281 C55.9709469,181.959205 59.849424,180.74826 68.6581217,184.199 L68.843,182.00168" id="Fill-9" fill="#AB2531"></path>
                <path d="M44.843,172.563906 C44.843,172.563906 42.5827827,163.47749 35.4010371,161.199 C35.4010371,161.199 36.3023365,166.478362 38.2849629,168.826298 C38.2849629,168.826298 34.3750735,167.49249 28.843,169.548679 C28.843,169.548679 34.0839321,175.022798 44.843,172.563906" id="Fill-10" fill="#AB2531"></path>
                <path d="M32.843,163.952603 C32.843,163.952603 32.3973053,154.950786 24.792882,151.199 C24.792882,151.199 24.6952648,156.534281 26.157968,159.244745 C26.157968,159.244745 21.8958663,157.846888 17.843,158.017786 C17.843,158.017786 22.4391783,165.650428 32.843,163.952603" id="Fill-11" fill="#AB2531"></path>
                <path d="M21.7884159,154.199 C21.7884159,154.199 22.7479168,144.330804 16.6211956,140.199 C16.6211956,140.199 15.9020483,146.141962 16.9947388,148.466573 C16.9947388,148.466573 13.1946254,145.736751 8.843,146.304523 C8.843,146.304523 11.2346717,153.631229 21.7884159,154.199" id="Fill-12" fill="#AB2531"></path>
                <path d="M12.3697771,141.199 C12.3697771,141.199 14.5146981,131.349928 9.67152744,127.199 C9.67152744,127.199 7.59577248,132.123536 8.37089617,134.909549 C8.37089617,134.909549 4.8144463,131.377823 0.843,130.871382 C0.843,130.871382 2.75260183,140.214014 12.3697771,141.199" id="Fill-13" fill="#AB2531"></path>
                <path d="M6.38724028,129.199 C6.38724028,129.199 8.73193866,121.611041 2.78498833,115.199 C2.78498833,115.199 -0.927319287,122.507053 6.38724028,129.199" id="Fill-14" fill="#AB2531"></path>
                <path d="M53.843,150.458986 C59.7867211,154.428856 66.3261888,158.036222 73.3428036,161.199 C80.3602039,158.035829 86.908704,154.428856 92.843,150.46527 L92.843,55.199 L53.843,55.199 L53.843,150.458986" id="Fill-15" fill="#FFFEFB"></path>
                <path d="M50.843,148.199 L50.843,55.199 L18.843,55.199 L18.843,83.5176891 C18.843,109.260556 30.7588702,133.245536 50.843,148.199" id="Fill-16" fill="#1A3F4F"></path>
                <path d="M96.843,148.199 L96.843,55.199 L128.843,55.199 L128.843,83.5176891 C128.843,109.260556 116.92713,133.245536 96.843,148.199" id="Fill-17" fill="#1A3F4F"></path>
                <path d="M107.843,34.6991971 C107.843,53.7528861 92.3967979,69.199 73.343,69.199 C54.2892021,69.199 38.843,53.7528861 38.843,34.6991971 C38.843,15.6451139 54.2892021,0.199 73.343,0.199 C92.3967979,0.199 107.843,15.6451139 107.843,34.6991971" id="Fill-18" fill="#FFFFFE"></path>
                <path d="M103.843,34.6991966 C103.843,51.5436806 90.1876806,65.199 73.3431966,65.199 C56.4983194,65.199 42.843,51.5436806 42.843,34.6991966 C42.843,17.8543194 56.4983194,4.199 73.3431966,4.199 C90.1876806,4.199 103.843,17.8543194 103.843,34.6991966" id="Fill-19" fill="#AB2531"></path>
                <path d="M99.843,34.1991998 C99.843,49.1107419 87.9785107,61.199 73.343,61.199 C58.7074893,61.199 46.843,49.1107419 46.843,34.1991998 C46.843,19.2872581 58.7074893,7.199 73.343,7.199 C87.9785107,7.199 99.843,19.2872581 99.843,34.1991998" id="Fill-20" fill="#FFFEFB"></path>
                <path d="M61.843,6.57517294 L73.843,16.199 L85.843,6.57517294 C82.1575283,5.04639792 78.1023641,4.199 73.843,4.199 C69.5836359,4.199 65.5284717,5.04639792 61.843,6.57517294" id="Fill-21" fill="#AB2531"></path>
                <path d="M51.5710613,14.199 C46.7629112,19.5178056 43.843,26.4734069 43.843,34.0925423 C43.843,34.8013263 43.8776984,35.5023086 43.9269217,36.199 L57.843,27.7899429 L51.5710613,14.199" id="Fill-22" fill="#AB2531"></path>
                <path d="M67.843,65.199 L63.3515003,50.199 L47.843,51.2147651 C52.260337,58.2388009 59.4208809,63.3894928 67.843,65.199" id="Fill-23" fill="#AB2531"></path>
                <path d="M96.1153421,14.199 C100.923492,19.5178056 103.843,26.4734069 103.843,34.0925423 C103.843,34.8013263 103.808705,35.5023086 103.759078,36.199 L89.843,27.7899429 L96.1153421,14.199" id="Fill-24" fill="#AB2531"></path>
                <path d="M79.843,65.199 L84.3344997,50.199 L99.843,51.2147651 C95.425663,58.2388009 88.2647138,63.3894928 79.843,65.199" id="Fill-25" fill="#AB2531"></path>
                <polyline id="Fill-26" fill="#AB2531" points="73.343 24.199 63.843 31.4593008 67.5951736 43.199 79.0908264 43.199 82.843 31.4593008 73.343 24.199"></polyline>
                <polygon id="Fill-27" fill="#FFFEFB" points="16.843 100.199 129.843 100.199 129.843 81.199 16.843 81.199"></polygon>
                <polyline id="Fill-28" fill="#FFFEFB" points="33.843 62.199 35.6968511 66.1492058 39.843 66.7824756 36.843 69.8572672 37.551084 74.199 33.843 72.149005 30.1345341 74.199 30.843 69.8572672 27.843 66.7824756 31.988767 66.1492058 33.843 62.199"></polyline>
                <polyline id="Fill-29" fill="#AB2531" points="73.8428033 106.199 76.9331651 112.453463 83.843 113.456504 78.8430984 118.324711 80.0231334 125.199 73.8428033 121.95366 67.6624731 125.199 68.8429016 118.324711 63.843 113.456504 70.7528349 112.453463 73.8428033 106.199"></polyline>
                <polyline id="Fill-30" fill="#FFFEFB" points="112.843 62.199 114.697233 66.1492058 118.843 66.7824756 115.843 69.8572672 116.551466 74.199 112.843 72.149005 109.134916 74.199 109.843 69.8572672 106.843 66.7824756 110.989149 66.1492058 112.843 62.199"></polyline>
                <polyline id="Fill-31" fill="#0A0B09" points="23.5420373 94.2682888 23.5420373 95.5968208 26.1540088 95.5968208 26.1540088 93.0140126 22.97318 93.0140126 20.843 90.9695585 20.843 87.3455557 22.97318 85.199 26.7224475 85.199 28.843 87.3455557 28.843 89.1482751 26.1540088 89.1482751 26.1540088 87.7822117 23.5420373 87.7822117 23.5420373 90.4118333 26.7224475 90.4118333 28.843 92.4655694 28.843 96.0802902 26.7224475 98.199 22.97318 98.199 20.843 96.0802902 20.843 94.2682888 23.5420373 94.2682888"></polyline>
                <path d="M32.5417599,95.5968208 L35.163496,95.5968208 L35.163496,87.7822117 L32.5417599,87.7822117 L32.5417599,95.5968208 Z M29.843,87.3455557 L31.9636635,85.199 L35.7227551,85.199 L37.843,87.3455557 L37.843,96.0802902 L35.7227551,98.199 L31.9636635,98.199 L29.843,96.0802902 L29.843,87.3455557 L29.843,87.3455557 Z" id="Fill-32" fill="#0A0B09"></path>
                <polyline id="Fill-33" fill="#0A0B09" points="39.843 87.3455557 41.9636635 85.199 45.7227551 85.199 47.843 87.3455557 47.843 89.1482751 45.163496 89.1482751 45.163496 87.7822117 42.4647362 87.7822117 42.4647362 95.5968208 45.163496 95.5968208 45.163496 94.2682888 47.843 94.2682888 47.843 96.0802902 45.7227551 98.199 41.9636635 98.199 39.843 96.0802902 39.843 87.3455557"></polyline>
                <polyline id="Fill-34" fill="#0A0B09" points="48.843 87.3455557 50.9635525 85.199 54.7224475 85.199 56.843 87.3455557 56.843 89.1482751 54.1636362 89.1482751 54.1636362 87.7822117 51.4650176 87.7822117 51.4650176 95.5968208 54.1636362 95.5968208 54.1636362 94.2682888 56.843 94.2682888 56.843 96.0802902 54.7224475 98.199 50.9635525 98.199 48.843 96.0802902 48.843 87.3455557"></polyline>
                <polyline id="Fill-35" fill="#0A0B09" points="59.0788831 95.5968208 59.0788831 87.7822117 57.843 87.7822117 57.843 85.199 66.843 85.199 66.843 89.1482751 64.2426796 89.1482751 64.2426796 87.7822117 61.6607813 87.7822117 61.6607813 90.4118333 64.2426796 90.4118333 64.2426796 93.0140126 61.6607813 93.0140126 61.6607813 95.5968208 64.2426796 95.5968208 64.2426796 94.2682888 66.843 94.2682888 66.843 98.199 57.843 98.199 57.843 95.5968208 59.0788831 95.5968208"></polyline>
                <path d="M72.6411758,90.4118333 L75.0452123,90.4118333 L75.0452123,87.7822117 L72.6411758,87.7822117 L72.6411758,90.4118333 Z M70.1121636,95.5968208 L70.1121636,87.7822117 L68.843,87.7822117 L68.843,85.199 L75.5901376,85.199 L77.5652977,87.3455557 L77.5652977,90.9695585 L76.8057402,91.7500508 L77.5652977,92.4655694 L77.5652977,95.5968208 L78.843,95.5968208 L78.843,98.199 L73.9902928,98.199 L73.9902928,95.5968208 L75.0452123,95.5968208 L75.0452123,93.0140126 L72.6411758,93.0140126 L72.6411758,95.5968208 L73.695319,95.5968208 L73.695319,98.199 L68.843,98.199 L68.843,95.5968208 L70.1121636,95.5968208 L70.1121636,95.5968208 Z" id="Fill-36" fill="#0A0B09"></path>
                <polyline id="Fill-37" fill="#0A0B09" points="85.843 87.3455557 87.9632449 85.199 91.7223365 85.199 93.843 87.3455557 93.843 89.1482751 91.163496 89.1482751 91.163496 87.7822117 88.4647362 87.7822117 88.4647362 95.5968208 91.163496 95.5968208 91.163496 94.2682888 93.843 94.2682888 93.843 96.0802902 91.7223365 98.199 87.9632449 98.199 85.843 96.0802902 85.843 87.3455557"></polyline>
                <polyline id="Fill-38" fill="#0A0B09" points="95.843 95.5968208 97.1525715 95.5968208 97.1525715 87.7822117 95.843 87.7822117 95.843 85.199 100.988374 85.199 100.988374 87.7822117 99.6603809 87.7822117 99.6603809 95.5968208 102.242279 95.5968208 102.242279 94.2682888 104.843 94.2682888 104.843 98.199 95.843 98.199 95.843 95.5968208"></polyline>
                <polyline id="Fill-39" fill="#0A0B09" points="111.658826 85.199 111.658826 87.7822117 110.56276 87.7822117 110.56276 95.5968208 113.078368 95.5968208 113.078368 87.7822117 112.027174 87.7822117 112.027174 85.199 116.843 85.199 116.843 87.7822117 115.620899 87.7822117 115.620899 96.0802902 113.545825 98.199 110.113641 98.199 108.065101 96.0802902 108.065101 87.7822117 106.843 87.7822117 106.843 85.199 111.658826 85.199"></polyline>
                <path d="M121.660781,95.5968208 L124.24268,95.5968208 L124.24268,93.0140126 L121.660781,93.0140126 L121.660781,95.5968208 Z M121.660781,90.4118333 L124.24268,90.4118333 L124.24268,87.7822117 L121.660781,87.7822117 L121.660781,90.4118333 Z M119.078483,95.5968208 L119.078483,87.7822117 L117.843,87.7822117 L117.843,85.199 L124.703633,85.199 L126.843,87.3455557 L126.843,90.9695585 L125.487373,91.7500508 L126.843,92.4655694 L126.843,96.0802902 L124.703633,98.199 L117.843,98.199 L117.843,95.5968208 L119.078483,95.5968208 L119.078483,95.5968208 Z" id="Fill-40" fill="#0A0B09"></path>
                <polyline id="Fill-41" fill="#0A0B09" points="63.843 144.199 63.843 140.084899 64.7572447 139.05597 66.7001941 139.05597 66.7001941 136.484657 64.9858059 136.484657 64.9858059 137.127283 63.843 137.127283 63.843 136.227525 64.7572447 135.199 66.9287553 135.199 67.843 136.227525 67.843 139.313101 66.9287553 140.341626 64.9858059 140.341626 64.9858059 142.913343 66.7001941 142.913343 66.7001941 142.270313 67.843 142.270313 67.843 144.199 63.843 144.199"></polyline>
                <path d="M70.9858059,142.913343 L72.7001941,142.913343 L72.7001941,136.484657 L70.9858059,136.484657 L70.9858059,142.913343 Z M70.7572447,144.199 L69.843,143.170475 L69.843,136.227525 L70.7572447,135.199 L72.9283965,135.199 L73.843,136.227525 L73.843,143.170475 L72.9283965,144.199 L70.7572447,144.199 L70.7572447,144.199 Z" id="Fill-42" fill="#0A0B09"></path>
                <polyline id="Fill-43" fill="#0A0B09" points="73.843 144.199 73.843 142.913343 75.1766124 142.913343 75.1766124 137.436083 74.1900071 137.436083 74.1900071 136.484657 75.1766124 135.199 76.5098062 135.199 76.5098062 142.913343 77.843 142.913343 77.843 144.199 73.843 144.199"></polyline>
                <polyline id="Fill-44" fill="#0A0B09" points="79.843 137.127283 79.843 136.227525 80.7572447 135.199 82.9287553 135.199 83.843 136.227525 83.843 139.313101 83.5003376 139.699 83.843 140.084899 83.843 143.170475 82.9287553 144.199 80.7572447 144.199 79.843 143.170475 79.843 142.270313 80.9858059 142.270313 80.9858059 142.913343 82.7001941 142.913343 82.7001941 140.341626 81.843 140.341626 81.843 139.05597 82.7001941 139.05597 82.7001941 136.484657 80.9858059 136.484657 80.9858059 137.127283 79.843 137.127283"></polyline>
            </g>
        </g>
    </g>
</svg>