<?xml version="1.0" encoding="UTF-8"?>
<svg width="62px" height="78px" viewBox="0 0 62 78" version="1.1" xmlns="http://www.w3.org/2000/svg" xmlns:xlink="http://www.w3.org/1999/xlink">
    <title>25E6292D-F9BC-40BC-8BA9-329C101B028D</title>
    <g id="Page-1" stroke="none" stroke-width="1" fill="none" fill-rule="evenodd">
        <g id="Desktop-Summary" transform="translate(-886.000000, -205.000000)">
            <g id="Group" transform="translate(886.157000, 205.801000)">
                <path d="M30.3541228,69.9832671 C26.7396112,68.3900639 23.3904446,66.5234918 20.3994701,64.435552 C10.6584924,57.6362643 4.843,46.2974101 4.843,34.1043182 L4.843,15.8166123 C4.843,14.3732951 6.00263262,13.199 7.42792827,13.199 L54.2579127,13.199 C55.6832084,13.199 56.843,14.3732951 56.843,15.8166123 L56.843,34.0962685 C56.843,46.4893157 50.8112887,57.9798269 40.7081445,64.8338528 C37.870113,66.759027 34.7157024,68.4913296 31.3318772,69.9832671 L30.843,70.199 L30.3541228,69.9832671" id="Fill-1" fill="#1A3F4F"></path>
                <path d="M8.78957111,15.199 C8.26756853,15.199 7.843,15.631095 7.843,16.1623512 L7.843,34.2579 C7.843,45.7877292 13.3103832,56.5067881 22.4679009,62.9313622 C25.2861049,64.9082171 28.4394693,66.6800514 31.8430803,68.199 C35.0285481,66.777089 37.9958728,65.1336579 40.6659192,63.312978 C50.1693519,56.8338407 55.843,45.969062 55.843,34.2500586 L55.843,16.1623512 C55.843,15.631095 55.4184315,15.199 54.8967499,15.199 L8.78957111,15.199" id="Fill-2" fill="#FFFEFB"></path>
                <path d="M32.843,75.2572914 C32.843,75.2572914 36.1731289,75.1244712 37.8261083,73.1626767 C39.4790876,71.2008822 39.6654002,70.8206254 41.8654002,70.199 C41.8654002,70.199 41.2403297,72.2934462 39.5994355,73.5248982 C39.5994355,73.5248982 41.7333029,72.9816502 43.843,73.8990871 C43.843,73.8990871 42.063798,75.2149845 40.1763333,75.2271203 C38.2890365,75.2390876 36.6479744,74.7201113 32.9212177,76.199 L32.843,75.2572914" id="Fill-3" fill="#AB2531"></path>
                <path d="M42.843,70.9343775 C42.843,70.9343775 43.8316996,67.1483709 46.9737893,66.199 C46.9737893,66.199 46.5794613,68.3987343 45.7120413,69.3770406 C45.7120413,69.3770406 47.4226593,68.8212877 49.843,69.6780331 C49.843,69.6780331 47.5502061,71.9589158 42.843,70.9343775" id="Fill-4" fill="#AB2531"></path>
                <path d="M47.843,67.104232 C47.843,67.104232 48.0212779,63.6419947 51.0630472,62.199 C51.0630472,62.199 51.1020941,64.251031 50.5171684,65.2935173 C50.5171684,65.2935173 52.2218535,64.75588 53.843,64.8216099 C53.843,64.8216099 52.0045287,67.7572415 47.843,67.104232" id="Fill-5" fill="#AB2531"></path>
                <path d="M52.8639959,63.199 C52.8639959,63.199 52.4949572,58.9697732 54.8512403,57.199 C54.8512403,57.199 55.1279825,59.7459839 54.7075699,60.7422455 C54.7075699,60.7422455 56.1691514,59.572322 57.843,59.8156525 C57.843,59.8156525 56.9231266,62.9556695 52.8639959,63.199" id="Fill-6" fill="#AB2531"></path>
                <path d="M56.0401762,58.199 C56.0401762,58.199 55.1464591,53.9779689 57.1644469,52.199 C57.1644469,52.199 58.0293448,54.3095155 57.7065376,55.5035211 C57.7065376,55.5035211 59.1882307,53.9899241 60.843,53.7728781 C60.843,53.7728781 60.0473326,57.7768632 56.0401762,58.199" id="Fill-7" fill="#AB2531"></path>
                <path d="M59.0253755,53.199 C59.0253755,53.199 58.0873043,49.9470174 60.4661708,47.199 C60.4661708,47.199 61.9511478,50.3310228 59.0253755,53.199" id="Fill-8" fill="#AB2531"></path>
                <path d="M28.843,75.2572914 C28.843,75.2572914 25.5128711,75.1244712 23.8598917,73.1626767 C22.2069124,71.2008822 22.0205998,70.8206254 19.8205998,70.199 C19.8205998,70.199 20.4456703,72.2934462 22.0867324,73.5248982 C22.0867324,73.5248982 19.952865,72.9816502 17.843,73.8990871 C17.843,73.8990871 19.622202,75.2149845 21.5096667,75.2271203 C23.3971314,75.2390876 25.0380256,74.7201113 28.7647823,76.199 L28.843,75.2572914" id="Fill-9" fill="#AB2531"></path>
                <path d="M19.843,70.9343775 C19.843,70.9343775 18.8541549,67.1483709 15.7121412,66.199 C15.7121412,66.199 16.1064597,68.3987343 16.9738588,69.3770406 C16.9738588,69.3770406 15.2632821,68.8212877 12.843,69.6780331 C12.843,69.6780331 15.1359078,71.9589158 19.843,70.9343775" id="Fill-10" fill="#AB2531"></path>
                <path d="M14.843,67.104232 C14.843,67.104232 14.6647221,63.6419947 11.6229528,62.199 C11.6229528,62.199 11.5839059,64.251031 12.1689872,65.2935173 C12.1689872,65.2935173 10.4641465,64.75588 8.843,64.8216099 C8.843,64.8216099 10.6814713,67.7572415 14.843,67.104232" id="Fill-11" fill="#AB2531"></path>
                <path d="M9.82200612,63.199 C9.82200612,63.199 10.1910449,58.9697732 7.83461369,57.199 C7.83461369,57.199 7.55801859,59.7459839 7.97828416,60.7422455 C7.97828416,60.7422455 6.51670209,59.572322 4.843,59.8156525 C4.843,59.8156525 5.76287374,62.9556695 9.82200612,63.199" id="Fill-12" fill="#AB2531"></path>
                <path d="M5.64582377,58.199 C5.64582377,58.199 6.53954087,53.9779689 4.5215531,52.199 C4.5215531,52.199 3.6566552,54.3095155 3.9796234,55.5035211 C3.9796234,55.5035211 2.49776929,53.9899241 0.843,53.7728781 C0.843,53.7728781 1.63866743,57.7768632 5.64582377,58.199" id="Fill-13" fill="#AB2531"></path>
                <path d="M3.66069611,53.199 C3.66069611,53.199 4.59857546,49.9470174 2.21979533,47.199 C2.21979533,47.199 0.734872285,50.3310228 3.66069611,53.199" id="Fill-14" fill="#AB2531"></path>
                <path d="M22.843,61.7408811 C25.2814497,63.3887516 27.9643082,64.8861487 30.8429194,66.199 C33.7218529,64.8859857 36.408417,63.3887516 38.843,61.7434895 L38.843,22.199 L22.843,22.199 L22.843,61.7408811" id="Fill-15" fill="#FFFEFB"></path>
                <path d="M21.843,61.199 L21.843,23.199 L8.843,23.199 L8.843,34.7700773 C8.843,45.2886682 13.6838223,55.0889823 21.843,61.199" id="Fill-16" fill="#1A3F4F"></path>
                <path d="M40.843,61.199 L40.843,23.199 L53.843,23.199 L53.843,34.7700773 C53.843,45.2886682 49.0021777,55.0889823 40.843,61.199" id="Fill-17" fill="#1A3F4F"></path>
                <path d="M44.843,14.19908 C44.843,21.9310118 38.574976,28.199 30.843,28.199 C23.111024,28.199 16.843,21.9310118 16.843,14.19908 C16.843,6.46698823 23.111024,0.199 30.843,0.199 C38.574976,0.199 44.843,6.46698823 44.843,14.19908" id="Fill-18" fill="#FFFFFE"></path>
                <path d="M43.843,14.6990806 C43.843,21.6025576 38.2465576,27.199 31.3430806,27.199 C24.4394424,27.199 18.843,21.6025576 18.843,14.6990806 C18.843,7.79544236 24.4394424,2.199 31.3430806,2.199 C38.2465576,2.199 43.843,7.79544236 43.843,14.6990806" id="Fill-19" fill="#AB2531"></path>
                <path d="M41.843,14.1990814 C41.843,20.2741541 36.9181176,25.199 30.843,25.199 C24.7678824,25.199 19.843,20.2741541 19.843,14.1990814 C19.843,8.12384591 24.7678824,3.199 30.843,3.199 C36.9181176,3.199 41.843,8.12384591 41.843,14.1990814" id="Fill-20" fill="#FFFEFB"></path>
                <path d="M25.843,2.18907206 L30.843,6.199 L35.843,2.18907206 C34.3073868,1.55208247 32.617735,1.199 30.843,1.199 C29.068265,1.199 27.3786132,1.55208247 25.843,2.18907206" id="Fill-21" fill="#AB2531"></path>
                <path d="M22.1550263,6.199 C20.0943905,8.37487503 18.843,11.2203483 18.843,14.3372673 C18.843,14.6272244 18.8578707,14.9139899 18.8789665,15.199 L24.843,11.7589312 L22.1550263,6.199" id="Fill-22" fill="#AB2531"></path>
                <path d="M28.843,27.199 L27.0464001,21.199 L20.843,21.605306 C22.6099348,24.4149203 25.4741524,26.4751971 28.843,27.199" id="Fill-23" fill="#AB2531"></path>
                <path d="M40.5311466,6.199 C42.5917824,8.37487503 43.843,11.2203483 43.843,14.3372673 C43.843,14.6272244 43.8283022,14.9139899 43.8070335,15.199 L37.843,11.7589312 L40.5311466,6.199" id="Fill-24" fill="#AB2531"></path>
                <path d="M33.843,27.199 L35.6395999,21.199 L41.843,21.605306 C40.0760652,24.4149203 37.2116855,26.4751971 33.843,27.199" id="Fill-25" fill="#AB2531"></path>
                <polyline id="Fill-26" fill="#AB2531" points="30.843 10.199 26.843 13.2559688 28.4228625 18.199 33.2631375 18.199 34.843 13.2559688 30.843 10.199"></polyline>
                <polygon id="Fill-27" fill="#FFFEFB" points="7.843 41.199 53.843 41.199 53.843 33.199 7.843 33.199"></polygon>
                <polyline id="Fill-28" fill="#FFFEFB" points="14.343 25.199 15.1154379 26.8449191 16.843 27.1087815 15.593 28.3899447 15.888035 30.199 14.343 29.3448354 12.7978059 30.199 13.093 28.3899447 11.843 27.1087815 13.5704029 26.8449191 14.343 25.199"></polyline>
                <polyline id="Fill-29" fill="#AB2531" points="30.8429213 43.199 32.079066 45.8324581 34.843 46.2547912 32.8430393 48.3045626 33.3150534 51.199 30.8429213 49.8325409 28.3707893 51.199 28.8429607 48.3045626 26.843 46.2547912 29.606934 45.8324581 30.8429213 43.199"></polyline>
                <polyline id="Fill-30" fill="#FFFEFB" points="47.343 25.199 48.1155971 26.8449191 49.843 27.1087815 48.593 28.3899447 48.8881941 30.199 47.343 29.3448354 45.797965 30.199 46.093 28.3899447 44.843 27.1087815 46.5705621 26.8449191 47.343 25.199"></polyline>
                <polyline id="Fill-31" fill="#0A0B09" points="10.855139 38.687188 10.855139 39.1981618 11.8346283 39.1981618 11.8346283 38.2047741 10.6418175 38.2047741 9.843 37.4184456 9.843 36.0245984 10.6418175 35.199 12.0477928 35.199 12.843 36.0245984 12.843 36.717952 11.8346283 36.717952 11.8346283 36.192543 10.855139 36.192543 10.855139 37.2039359 12.0477928 37.2039359 12.843 37.9938344 12.843 39.3841116 12.0477928 40.199 10.6418175 40.199 9.843 39.3841116 9.843 38.687188 10.855139 38.687188"></polyline>
                <path d="M13.855035,39.1981618 L14.838186,39.1981618 L14.838186,36.192543 L13.855035,36.192543 L13.855035,39.1981618 Z M12.843,36.0245984 L13.6382488,35.199 L15.0479082,35.199 L15.843,36.0245984 L15.843,39.3841116 L15.0479082,40.199 L13.6382488,40.199 L12.843,39.3841116 L12.843,36.0245984 L12.843,36.0245984 Z" id="Fill-32" fill="#0A0B09"></path>
                <polyline id="Fill-33" fill="#0A0B09" points="17.843 36.0245984 18.6382488 35.199 20.0479082 35.199 20.843 36.0245984 20.843 36.717952 19.838186 36.717952 19.838186 36.192543 18.8261511 36.192543 18.8261511 39.1981618 19.838186 39.1981618 19.838186 38.687188 20.843 38.687188 20.843 39.3841116 20.0479082 40.199 18.6382488 40.199 17.843 39.3841116 17.843 36.0245984"></polyline>
                <polyline id="Fill-34" fill="#0A0B09" points="20.843 36.0245984 21.6382072 35.199 23.0477928 35.199 23.843 36.0245984 23.843 36.717952 22.8382386 36.717952 22.8382386 36.192543 21.8262566 36.192543 21.8262566 39.1981618 22.8382386 39.1981618 22.8382386 38.687188 23.843 38.687188 23.843 39.3841116 23.0477928 40.199 21.6382072 40.199 20.843 39.3841116 20.843 36.0245984"></polyline>
                <polyline id="Fill-35" fill="#0A0B09" points="25.3922814 39.1981618 25.3922814 36.192543 24.843 36.192543 24.843 35.199 28.843 35.199 28.843 36.717952 27.6873021 36.717952 27.6873021 36.192543 26.5397917 36.192543 26.5397917 37.2039359 27.6873021 37.2039359 27.6873021 38.2047741 26.5397917 38.2047741 26.5397917 39.1981618 27.6873021 39.1981618 27.6873021 38.687188 28.843 38.687188 28.843 40.199 24.843 40.199 24.843 39.1981618 25.3922814 39.1981618"></polyline>
                <path d="M30.3622703,37.2039359 L31.3238849,37.2039359 L31.3238849,36.192543 L30.3622703,36.192543 L30.3622703,37.2039359 Z M29.3506654,39.1981618 L29.3506654,36.192543 L28.843,36.192543 L28.843,35.199 L31.541855,35.199 L32.3319191,36.0245984 L32.3319191,37.4184456 L32.0280961,37.7186349 L32.3319191,37.9938344 L32.3319191,39.1981618 L32.843,39.1981618 L32.843,40.199 L30.9019171,40.199 L30.9019171,39.1981618 L31.3238849,39.1981618 L31.3238849,38.2047741 L30.3622703,38.2047741 L30.3622703,39.1981618 L30.7839276,39.1981618 L30.7839276,40.199 L28.843,40.199 L28.843,39.1981618 L29.3506654,39.1981618 L29.3506654,39.1981618 Z" id="Fill-36" fill="#0A0B09"></path>
                <polyline id="Fill-37" fill="#0A0B09" points="35.843 36.0245984 36.6380918 35.199 38.0477512 35.199 38.843 36.0245984 38.843 36.717952 37.838186 36.717952 37.838186 36.192543 36.8261511 36.192543 36.8261511 39.1981618 37.838186 39.1981618 37.838186 38.687188 38.843 38.687188 38.843 39.3841116 38.0477512 40.199 36.6380918 40.199 35.843 39.3841116 35.843 36.0245984"></polyline>
                <polyline id="Fill-38" fill="#0A0B09" points="39.843 39.1981618 40.4250318 39.1981618 40.4250318 36.192543 39.843 36.192543 39.843 35.199 42.1298331 35.199 42.1298331 36.192543 41.5396137 36.192543 41.5396137 39.1981618 42.6871241 39.1981618 42.6871241 38.687188 43.843 38.687188 43.843 40.199 39.843 40.199 39.843 39.1981618"></polyline>
                <polyline id="Fill-39" fill="#0A0B09" points="46.7693306 35.199 46.7693306 36.192543 46.3309039 36.192543 46.3309039 39.1981618 47.337147 39.1981618 47.337147 36.192543 46.9166694 36.192543 46.9166694 35.199 48.843 35.199 48.843 36.192543 48.3541597 36.192543 48.3541597 39.3841116 47.52413 40.199 46.1512566 40.199 45.3318403 39.3841116 45.3318403 36.192543 44.843 36.192543 44.843 35.199 46.7693306 35.199"></polyline>
                <path d="M50.5397917,39.1981618 L51.6873021,39.1981618 L51.6873021,38.2047741 L50.5397917,38.2047741 L50.5397917,39.1981618 Z M50.5397917,37.2039359 L51.6873021,37.2039359 L51.6873021,36.192543 L50.5397917,36.192543 L50.5397917,37.2039359 Z M49.3921034,39.1981618 L49.3921034,36.192543 L48.843,36.192543 L48.843,35.199 L51.8921701,35.199 L52.843,36.0245984 L52.843,37.4184456 L52.2404992,37.7186349 L52.843,37.9938344 L52.843,39.3841116 L51.8921701,40.199 L48.843,40.199 L48.843,39.1981618 L49.3921034,39.1981618 L49.3921034,39.1981618 Z" id="Fill-40" fill="#0A0B09"></path>
                <polyline id="Fill-41" fill="#0A0B09" points="26.843 59.199 26.843 57.3705106 27.3001224 56.9132088 28.2715971 56.9132088 28.2715971 55.7704029 27.4144029 55.7704029 27.4144029 56.0560147 26.843 56.0560147 26.843 55.6561224 27.3001224 55.199 28.3858776 55.199 28.843 55.6561224 28.843 57.0274894 28.3858776 57.4846118 27.4144029 57.4846118 27.4144029 58.6275971 28.2715971 58.6275971 28.2715971 58.3418059 28.843 58.3418059 28.843 59.199 26.843 59.199"></polyline>
                <path d="M29.4144029,58.6275971 L30.2715971,58.6275971 L30.2715971,55.7704029 L29.4144029,55.7704029 L29.4144029,58.6275971 Z M29.3001224,59.199 L28.843,58.7418776 L28.843,55.6561224 L29.3001224,55.199 L30.3856982,55.199 L30.843,55.6561224 L30.843,58.7418776 L30.3856982,59.199 L29.3001224,59.199 L29.3001224,59.199 Z" id="Fill-42" fill="#0A0B09"></path>
                <polyline id="Fill-43" fill="#0A0B09" points="30.843 59.199 30.843 58.6275971 31.5098062 58.6275971 31.5098062 56.1932591 31.0165036 56.1932591 31.0165036 55.7704029 31.5098062 55.199 32.1764031 55.199 32.1764031 58.6275971 32.843 58.6275971 32.843 59.199 30.843 59.199"></polyline>
                <polyline id="Fill-44" fill="#0A0B09" points="33.843 56.0560147 33.843 55.6561224 34.3001224 55.199 35.3858776 55.199 35.843 55.6561224 35.843 57.0274894 35.6716688 57.199 35.843 57.3705106 35.843 58.7418776 35.3858776 59.199 34.3001224 59.199 33.843 58.7418776 33.843 58.3418059 34.4144029 58.3418059 34.4144029 58.6275971 35.2715971 58.6275971 35.2715971 57.4846118 34.843 57.4846118 34.843 56.9132088 35.2715971 56.9132088 35.2715971 55.7704029 34.4144029 55.7704029 34.4144029 56.0560147 33.843 56.0560147"></polyline>
            </g>
        </g>
    </g>
</svg>